<svg xmlns="http://www.w3.org/2000/svg" xmlns:xlink="http://www.w3.org/1999/xlink" width="40" zoomAndPan="magnify" viewBox="0 0 30 30.000001" height="40" preserveAspectRatio="xMidYMid meet" version="1.0"><defs><g/><clipPath id="66158e062c"><path d="M 1.71875 8.460938 L 13.25 8.460938 L 13.25 21.519531 L 1.71875 21.519531 Z M 1.71875 8.460938 " clip-rule="nonzero"/></clipPath><clipPath id="3ea26816cc"><path d="M 26.199219 13.59375 L 29.296875 13.59375 L 29.296875 16.746094 L 26.199219 16.746094 Z M 26.199219 13.59375 " clip-rule="nonzero"/></clipPath></defs><path fill="#1a477e" d="M 8.371094 16.929688 C 8.371094 16.929688 8.390625 16.917969 8.429688 16.898438 C 8.472656 16.878906 8.535156 16.851562 8.621094 16.832031 C 8.707031 16.8125 8.816406 16.800781 8.945312 16.835938 C 9.007812 16.851562 9.078125 16.878906 9.140625 16.917969 C 9.203125 16.960938 9.265625 17.015625 9.320312 17.082031 C 9.375 17.148438 9.421875 17.222656 9.46875 17.304688 C 9.511719 17.386719 9.550781 17.472656 9.589844 17.566406 C 9.667969 17.75 9.742188 17.953125 9.816406 18.167969 C 9.894531 18.382812 9.96875 18.617188 10.054688 18.855469 C 10.140625 19.09375 10.234375 19.347656 10.351562 19.589844 C 10.414062 19.710938 10.480469 19.832031 10.558594 19.9375 C 10.597656 19.988281 10.644531 20.035156 10.6875 20.070312 C 10.699219 20.082031 10.710938 20.089844 10.722656 20.097656 C 10.734375 20.105469 10.746094 20.113281 10.757812 20.117188 C 10.78125 20.128906 10.804688 20.136719 10.828125 20.140625 C 10.851562 20.144531 10.875 20.144531 10.898438 20.140625 C 10.921875 20.136719 10.945312 20.128906 10.972656 20.117188 C 11.019531 20.097656 11.074219 20.058594 11.125 20.015625 L 11.128906 20.011719 C 11.128906 20.007812 11.132812 20.007812 11.132812 20.007812 L 11.136719 20 C 11.140625 19.996094 11.144531 19.992188 11.152344 19.984375 C 11.160156 19.972656 11.171875 19.964844 11.179688 19.949219 L 11.195312 19.929688 L 11.207031 19.910156 C 11.214844 19.898438 11.222656 19.882812 11.230469 19.867188 C 11.265625 19.808594 11.289062 19.742188 11.3125 19.671875 C 11.359375 19.53125 11.394531 19.378906 11.421875 19.21875 C 11.449219 19.0625 11.476562 18.898438 11.5 18.730469 C 11.550781 18.394531 11.609375 18.042969 11.71875 17.691406 C 11.769531 17.515625 11.835938 17.339844 11.921875 17.167969 C 12.007812 16.996094 12.113281 16.832031 12.246094 16.679688 C 12.375 16.53125 12.527344 16.398438 12.699219 16.289062 C 12.785156 16.238281 12.871094 16.191406 12.964844 16.148438 L 13.03125 16.121094 C 13.054688 16.109375 13.078125 16.101562 13.101562 16.09375 L 13.136719 16.082031 L 13.175781 16.066406 L 13.304688 16.027344 C 13.328125 16.019531 13.355469 16.015625 13.378906 16.007812 L 13.453125 15.988281 C 13.476562 15.984375 13.503906 15.976562 13.527344 15.972656 C 13.574219 15.964844 13.621094 15.953125 13.671875 15.945312 C 13.71875 15.9375 13.765625 15.933594 13.816406 15.925781 C 14.007812 15.902344 14.203125 15.894531 14.398438 15.902344 C 14.589844 15.910156 14.78125 15.925781 14.972656 15.953125 C 15.164062 15.980469 15.347656 16.015625 15.535156 16.058594 C 15.71875 16.097656 15.902344 16.144531 16.082031 16.195312 C 16.261719 16.242188 16.441406 16.289062 16.621094 16.339844 C 16.976562 16.433594 17.332031 16.53125 17.683594 16.625 C 17.859375 16.667969 18.035156 16.710938 18.210938 16.753906 C 18.296875 16.773438 18.382812 16.796875 18.472656 16.816406 C 18.558594 16.835938 18.644531 16.855469 18.730469 16.875 C 19.078125 16.949219 19.421875 17.011719 19.761719 17.058594 C 20.4375 17.152344 21.105469 17.183594 21.734375 17.175781 C 22.367188 17.171875 22.960938 17.121094 23.507812 17.035156 C 23.777344 16.996094 24.039062 16.945312 24.285156 16.890625 C 24.53125 16.835938 24.761719 16.777344 24.976562 16.710938 C 25.40625 16.585938 25.773438 16.445312 26.070312 16.316406 C 26.367188 16.183594 26.597656 16.070312 26.746094 15.984375 C 26.785156 15.964844 26.820312 15.945312 26.847656 15.929688 C 26.878906 15.914062 26.902344 15.898438 26.921875 15.886719 C 26.960938 15.867188 26.980469 15.855469 26.980469 15.855469 C 26.980469 15.855469 26.960938 15.867188 26.925781 15.894531 C 26.90625 15.90625 26.882812 15.921875 26.855469 15.941406 C 26.828125 15.960938 26.796875 15.984375 26.761719 16.007812 C 26.722656 16.03125 26.683594 16.058594 26.636719 16.085938 C 26.59375 16.113281 26.542969 16.144531 26.488281 16.179688 C 26.378906 16.242188 26.25 16.316406 26.105469 16.390625 C 25.816406 16.542969 25.457031 16.710938 25.027344 16.867188 C 24.597656 17.023438 24.101562 17.164062 23.546875 17.277344 C 23.273438 17.332031 22.980469 17.378906 22.679688 17.414062 C 22.378906 17.453125 22.066406 17.476562 21.746094 17.492188 C 21.101562 17.523438 20.417969 17.507812 19.714844 17.425781 C 19.363281 17.386719 19.011719 17.328125 18.65625 17.257812 C 18.566406 17.242188 18.476562 17.222656 18.386719 17.203125 C 18.300781 17.183594 18.210938 17.164062 18.121094 17.144531 C 17.941406 17.105469 17.765625 17.0625 17.585938 17.019531 C 17.230469 16.929688 16.871094 16.835938 16.515625 16.742188 C 16.335938 16.691406 16.15625 16.644531 15.980469 16.597656 C 15.800781 16.550781 15.625 16.507812 15.445312 16.46875 C 15.269531 16.429688 15.089844 16.394531 14.914062 16.367188 C 14.738281 16.34375 14.558594 16.324219 14.382812 16.316406 L 14.25 16.316406 C 14.207031 16.316406 14.164062 16.316406 14.121094 16.316406 C 14.097656 16.316406 14.078125 16.316406 14.054688 16.320312 L 13.992188 16.324219 C 13.945312 16.328125 13.902344 16.328125 13.859375 16.335938 C 13.816406 16.339844 13.773438 16.34375 13.734375 16.351562 C 13.691406 16.359375 13.648438 16.367188 13.605469 16.375 C 13.585938 16.378906 13.566406 16.382812 13.546875 16.386719 L 13.484375 16.402344 C 13.464844 16.40625 13.445312 16.410156 13.425781 16.414062 L 13.359375 16.4375 L 13.292969 16.457031 L 13.269531 16.464844 C 13.269531 16.464844 13.257812 16.46875 13.269531 16.464844 L 13.238281 16.476562 C 13.21875 16.480469 13.199219 16.488281 13.179688 16.496094 L 13.125 16.519531 C 13.046875 16.554688 12.976562 16.589844 12.90625 16.632812 C 12.765625 16.71875 12.640625 16.820312 12.535156 16.941406 C 12.425781 17.0625 12.332031 17.195312 12.257812 17.34375 C 12.183594 17.488281 12.117188 17.644531 12.066406 17.804688 C 11.960938 18.121094 11.898438 18.457031 11.839844 18.789062 C 11.808594 18.953125 11.777344 19.117188 11.742188 19.285156 C 11.707031 19.449219 11.667969 19.617188 11.605469 19.78125 C 11.578125 19.859375 11.542969 19.941406 11.496094 20.019531 C 11.480469 20.042969 11.46875 20.0625 11.457031 20.078125 L 11.4375 20.109375 L 11.414062 20.136719 C 11.402344 20.15625 11.382812 20.171875 11.367188 20.191406 C 11.359375 20.199219 11.347656 20.210938 11.339844 20.21875 L 11.324219 20.230469 L 11.320312 20.238281 L 11.3125 20.242188 C 11.242188 20.300781 11.167969 20.351562 11.078125 20.386719 C 10.984375 20.421875 10.875 20.4375 10.773438 20.414062 C 10.722656 20.402344 10.675781 20.386719 10.632812 20.359375 C 10.613281 20.351562 10.59375 20.335938 10.574219 20.324219 C 10.554688 20.308594 10.535156 20.296875 10.519531 20.28125 C 10.453125 20.222656 10.398438 20.15625 10.351562 20.09375 C 10.261719 19.960938 10.195312 19.824219 10.136719 19.691406 C 10.078125 19.558594 10.03125 19.425781 9.984375 19.296875 C 9.941406 19.167969 9.902344 19.042969 9.867188 18.917969 C 9.792969 18.671875 9.726562 18.4375 9.664062 18.21875 C 9.605469 18 9.542969 17.792969 9.480469 17.609375 C 9.414062 17.425781 9.347656 17.261719 9.253906 17.132812 C 9.164062 17.007812 9.046875 16.921875 8.933594 16.882812 C 8.816406 16.84375 8.707031 16.84375 8.625 16.855469 C 8.539062 16.867188 8.476562 16.886719 8.433594 16.902344 C 8.390625 16.921875 8.371094 16.929688 8.371094 16.929688 " fill-opacity="1" fill-rule="nonzero"/><g clip-path="url(#66158e062c)"><path fill="#1a477e" d="M 13.019531 12.398438 C 13.019531 12.398438 13.023438 12.367188 13.03125 12.304688 C 13.039062 12.242188 13.046875 12.148438 13.0625 12.027344 C 13.070312 11.90625 13.085938 11.757812 13.09375 11.582031 C 13.101562 11.410156 13.105469 11.207031 13.089844 10.984375 C 13.085938 10.875 13.074219 10.757812 13.054688 10.636719 C 13.035156 10.515625 13.007812 10.394531 12.964844 10.273438 C 12.921875 10.152344 12.863281 10.03125 12.785156 9.933594 C 12.707031 9.832031 12.601562 9.753906 12.480469 9.710938 C 12.359375 9.667969 12.21875 9.65625 12.070312 9.671875 C 11.921875 9.691406 11.769531 9.730469 11.613281 9.789062 C 11.460938 9.847656 11.300781 9.917969 11.144531 10 C 11.066406 10.042969 10.988281 10.085938 10.910156 10.132812 C 10.832031 10.179688 10.746094 10.230469 10.652344 10.28125 C 10.472656 10.378906 10.273438 10.457031 10.066406 10.519531 C 9.855469 10.578125 9.632812 10.617188 9.40625 10.625 C 9.179688 10.632812 8.949219 10.613281 8.722656 10.570312 C 8.496094 10.527344 8.269531 10.460938 8.054688 10.378906 C 7.835938 10.300781 7.621094 10.207031 7.414062 10.109375 C 7.203125 10.011719 6.996094 9.90625 6.789062 9.804688 C 6.582031 9.703125 6.375 9.605469 6.167969 9.511719 C 5.957031 9.421875 5.746094 9.339844 5.535156 9.277344 C 5.105469 9.152344 4.667969 9.105469 4.242188 9.1875 C 4.136719 9.207031 4.03125 9.234375 3.925781 9.269531 C 3.898438 9.277344 3.871094 9.285156 3.847656 9.296875 L 3.828125 9.304688 C 3.816406 9.304688 3.828125 9.300781 3.824219 9.304688 L 3.8125 9.308594 L 3.769531 9.324219 C 3.753906 9.332031 3.738281 9.335938 3.726562 9.34375 L 3.691406 9.359375 L 3.660156 9.375 C 3.648438 9.378906 3.636719 9.386719 3.625 9.390625 C 3.433594 9.484375 3.257812 9.609375 3.113281 9.761719 C 2.964844 9.914062 2.84375 10.09375 2.75 10.292969 C 2.652344 10.492188 2.582031 10.710938 2.535156 10.9375 C 2.488281 11.167969 2.464844 11.40625 2.457031 11.644531 C 2.449219 11.765625 2.453125 11.886719 2.453125 12.007812 C 2.457031 12.128906 2.464844 12.253906 2.476562 12.375 C 2.519531 12.863281 2.617188 13.355469 2.746094 13.835938 C 2.808594 14.074219 2.882812 14.3125 2.964844 14.550781 C 3.046875 14.785156 3.132812 15.015625 3.230469 15.242188 C 3.253906 15.300781 3.277344 15.359375 3.300781 15.414062 C 3.328125 15.472656 3.351562 15.53125 3.378906 15.589844 C 3.429688 15.703125 3.480469 15.820312 3.53125 15.933594 C 3.632812 16.164062 3.734375 16.394531 3.832031 16.621094 C 4.035156 17.078125 4.238281 17.527344 4.425781 17.984375 C 4.476562 18.101562 4.519531 18.214844 4.566406 18.332031 C 4.609375 18.445312 4.652344 18.5625 4.691406 18.679688 C 4.730469 18.800781 4.765625 18.917969 4.800781 19.035156 C 4.832031 19.15625 4.863281 19.273438 4.890625 19.390625 C 4.945312 19.628906 4.984375 19.863281 5.023438 20.09375 C 5.03125 20.152344 5.039062 20.210938 5.046875 20.265625 C 5.050781 20.28125 5.058594 20.324219 5.0625 20.339844 L 5.066406 20.371094 L 5.074219 20.40625 C 5.097656 20.492188 5.125 20.578125 5.167969 20.652344 C 5.246094 20.804688 5.363281 20.917969 5.492188 20.96875 C 5.621094 21.019531 5.769531 21.011719 5.910156 20.945312 C 5.984375 20.914062 6.054688 20.871094 6.121094 20.816406 C 6.1875 20.761719 6.246094 20.699219 6.304688 20.632812 C 6.421875 20.496094 6.515625 20.339844 6.601562 20.179688 C 6.683594 20.019531 6.753906 19.851562 6.816406 19.683594 C 6.875 19.511719 6.925781 19.34375 6.96875 19.175781 C 6.988281 19.089844 7.007812 19.007812 7.03125 18.925781 C 7.039062 18.882812 7.050781 18.839844 7.0625 18.796875 C 7.074219 18.753906 7.085938 18.714844 7.09375 18.671875 C 7.140625 18.507812 7.1875 18.347656 7.242188 18.195312 C 7.292969 18.042969 7.347656 17.898438 7.40625 17.757812 C 7.464844 17.621094 7.53125 17.488281 7.601562 17.363281 C 7.632812 17.304688 7.671875 17.246094 7.707031 17.1875 C 7.746094 17.132812 7.785156 17.078125 7.828125 17.027344 C 7.90625 16.921875 7.996094 16.835938 8.09375 16.761719 C 8.1875 16.6875 8.289062 16.632812 8.390625 16.597656 C 8.488281 16.5625 8.589844 16.546875 8.679688 16.542969 C 8.863281 16.539062 9.011719 16.578125 9.125 16.617188 C 9.242188 16.660156 9.324219 16.699219 9.382812 16.726562 C 9.4375 16.753906 9.464844 16.769531 9.464844 16.769531 C 9.464844 16.769531 9.4375 16.757812 9.378906 16.738281 C 9.320312 16.714844 9.230469 16.6875 9.113281 16.660156 C 9.058594 16.648438 8.992188 16.636719 8.917969 16.628906 C 8.847656 16.625 8.769531 16.621094 8.6875 16.632812 C 8.605469 16.644531 8.519531 16.667969 8.433594 16.707031 C 8.347656 16.746094 8.265625 16.804688 8.1875 16.875 C 8.03125 17.019531 7.898438 17.226562 7.789062 17.464844 C 7.679688 17.703125 7.589844 17.980469 7.511719 18.28125 C 7.476562 18.429688 7.4375 18.585938 7.40625 18.75 C 7.398438 18.789062 7.390625 18.828125 7.382812 18.871094 C 7.375 18.910156 7.367188 18.953125 7.359375 18.996094 C 7.34375 19.082031 7.332031 19.167969 7.316406 19.253906 C 7.28125 19.433594 7.238281 19.617188 7.1875 19.804688 C 7.132812 19.988281 7.070312 20.179688 6.984375 20.367188 C 6.902344 20.554688 6.800781 20.746094 6.664062 20.925781 C 6.59375 21.015625 6.519531 21.101562 6.429688 21.183594 C 6.34375 21.261719 6.242188 21.335938 6.125 21.394531 C 6.011719 21.453125 5.878906 21.5 5.742188 21.515625 C 5.671875 21.519531 5.601562 21.523438 5.527344 21.515625 C 5.457031 21.507812 5.386719 21.492188 5.316406 21.46875 C 5.179688 21.421875 5.054688 21.347656 4.949219 21.253906 C 4.894531 21.207031 4.847656 21.15625 4.804688 21.101562 C 4.761719 21.046875 4.722656 20.988281 4.6875 20.929688 C 4.617188 20.8125 4.5625 20.6875 4.527344 20.558594 L 4.511719 20.507812 L 4.5 20.457031 C 4.492188 20.417969 4.488281 20.402344 4.480469 20.363281 C 4.46875 20.308594 4.460938 20.253906 4.449219 20.199219 C 4.40625 19.976562 4.359375 19.757812 4.300781 19.542969 C 4.242188 19.324219 4.171875 19.109375 4.09375 18.894531 C 4.054688 18.789062 4.011719 18.679688 3.96875 18.570312 C 3.921875 18.464844 3.878906 18.355469 3.828125 18.246094 C 3.730469 18.03125 3.628906 17.808594 3.523438 17.585938 C 3.417969 17.363281 3.3125 17.140625 3.207031 16.914062 C 3.101562 16.6875 2.996094 16.460938 2.890625 16.230469 C 2.835938 16.113281 2.78125 16 2.730469 15.882812 C 2.703125 15.824219 2.675781 15.765625 2.652344 15.710938 C 2.625 15.648438 2.597656 15.589844 2.570312 15.53125 C 2.363281 15.046875 2.183594 14.546875 2.042969 14.03125 C 1.898438 13.515625 1.792969 12.984375 1.746094 12.441406 C 1.734375 12.304688 1.722656 12.167969 1.71875 12.03125 C 1.714844 11.894531 1.714844 11.757812 1.722656 11.617188 C 1.730469 11.339844 1.761719 11.0625 1.820312 10.785156 C 1.851562 10.644531 1.886719 10.507812 1.933594 10.371094 C 1.980469 10.234375 2.035156 10.101562 2.097656 9.96875 C 2.226562 9.707031 2.394531 9.460938 2.605469 9.25 C 2.816406 9.039062 3.0625 8.871094 3.324219 8.75 C 3.339844 8.742188 3.355469 8.734375 3.371094 8.726562 L 3.425781 8.703125 L 3.476562 8.683594 C 3.492188 8.675781 3.507812 8.671875 3.523438 8.664062 L 3.566406 8.648438 L 3.578125 8.644531 C 3.578125 8.644531 3.597656 8.636719 3.59375 8.636719 L 3.621094 8.628906 C 3.652344 8.617188 3.6875 8.609375 3.71875 8.597656 C 3.851562 8.558594 3.988281 8.527344 4.125 8.503906 C 4.398438 8.457031 4.679688 8.449219 4.949219 8.476562 C 5.21875 8.503906 5.480469 8.566406 5.726562 8.648438 C 5.972656 8.726562 6.203125 8.828125 6.425781 8.929688 C 6.648438 9.035156 6.859375 9.148438 7.066406 9.257812 C 7.269531 9.371094 7.46875 9.480469 7.667969 9.582031 C 7.863281 9.683594 8.058594 9.777344 8.253906 9.859375 C 8.445312 9.9375 8.640625 10.003906 8.832031 10.050781 C 9.023438 10.097656 9.214844 10.121094 9.402344 10.125 C 9.589844 10.128906 9.773438 10.109375 9.953125 10.070312 C 10.128906 10.027344 10.300781 9.964844 10.464844 9.890625 C 10.546875 9.855469 10.625 9.8125 10.714844 9.769531 C 10.800781 9.722656 10.886719 9.683594 10.976562 9.644531 C 11.148438 9.566406 11.324219 9.496094 11.503906 9.445312 C 11.683594 9.394531 11.863281 9.355469 12.046875 9.351562 C 12.140625 9.347656 12.234375 9.351562 12.324219 9.363281 C 12.414062 9.378906 12.503906 9.40625 12.589844 9.441406 C 12.671875 9.480469 12.75 9.53125 12.816406 9.589844 C 12.882812 9.648438 12.941406 9.714844 12.984375 9.785156 C 13.078125 9.921875 13.132812 10.070312 13.167969 10.210938 C 13.207031 10.351562 13.222656 10.484375 13.234375 10.617188 C 13.242188 10.746094 13.242188 10.867188 13.238281 10.980469 C 13.230469 11.214844 13.207031 11.417969 13.183594 11.59375 C 13.15625 11.769531 13.128906 11.917969 13.101562 12.035156 C 13.078125 12.15625 13.054688 12.246094 13.042969 12.308594 C 13.027344 12.367188 13.019531 12.398438 13.019531 12.398438 " fill-opacity="1" fill-rule="nonzero"/></g><path fill="#1a477e" d="M 5.449219 11.066406 C 5.449219 11.066406 5.535156 11.0625 5.6875 11.054688 C 5.839844 11.042969 6.058594 11.027344 6.316406 11 C 6.445312 10.988281 6.585938 10.972656 6.734375 10.953125 C 6.882812 10.933594 7.035156 10.910156 7.195312 10.886719 C 7.355469 10.859375 7.523438 10.832031 7.691406 10.800781 C 7.859375 10.769531 8.027344 10.734375 8.195312 10.699219 C 8.28125 10.679688 8.363281 10.660156 8.449219 10.640625 C 8.53125 10.617188 8.613281 10.597656 8.695312 10.574219 C 8.859375 10.53125 9.019531 10.484375 9.171875 10.4375 C 9.25 10.414062 9.324219 10.390625 9.398438 10.363281 C 9.472656 10.339844 9.542969 10.316406 9.613281 10.289062 C 9.75 10.238281 9.878906 10.1875 9.996094 10.136719 C 10.054688 10.109375 10.109375 10.085938 10.164062 10.0625 C 10.214844 10.039062 10.265625 10.011719 10.3125 9.992188 C 10.335938 9.980469 10.355469 9.96875 10.378906 9.957031 C 10.398438 9.949219 10.421875 9.9375 10.441406 9.925781 C 10.480469 9.90625 10.515625 9.886719 10.546875 9.871094 C 10.613281 9.832031 10.660156 9.804688 10.695312 9.785156 C 10.730469 9.765625 10.746094 9.753906 10.746094 9.753906 L 10.949219 10.121094 C 10.949219 10.121094 10.925781 10.132812 10.890625 10.152344 C 10.851562 10.167969 10.796875 10.195312 10.722656 10.230469 C 10.6875 10.246094 10.648438 10.261719 10.605469 10.28125 C 10.582031 10.292969 10.558594 10.300781 10.535156 10.3125 C 10.511719 10.320312 10.488281 10.332031 10.460938 10.339844 C 10.410156 10.359375 10.359375 10.382812 10.300781 10.402344 C 10.242188 10.421875 10.183594 10.445312 10.121094 10.46875 C 9.992188 10.511719 9.855469 10.554688 9.710938 10.59375 C 9.636719 10.617188 9.558594 10.636719 9.484375 10.65625 C 9.40625 10.675781 9.328125 10.695312 9.246094 10.714844 C 9.085938 10.753906 8.917969 10.785156 8.75 10.820312 C 8.664062 10.835938 8.578125 10.847656 8.492188 10.863281 C 8.40625 10.878906 8.320312 10.890625 8.234375 10.902344 C 8.058594 10.929688 7.886719 10.953125 7.714844 10.96875 C 7.542969 10.988281 7.375 11.003906 7.210938 11.015625 C 7.050781 11.03125 6.890625 11.039062 6.742188 11.046875 C 6.59375 11.054688 6.449219 11.0625 6.320312 11.066406 C 6.058594 11.074219 5.839844 11.074219 5.6875 11.074219 C 5.535156 11.070312 5.449219 11.066406 5.449219 11.066406 " fill-opacity="1" fill-rule="nonzero"/><g clip-path="url(#3ea26816cc)"><path fill="#27aae1" d="M 29.296875 15.164062 C 27.914062 15.253906 27.84375 15.328125 27.753906 16.726562 C 27.664062 15.328125 27.589844 15.253906 26.210938 15.164062 C 27.589844 15.074219 27.664062 15 27.753906 13.605469 C 27.84375 15 27.914062 15.074219 29.296875 15.164062 " fill-opacity="1" fill-rule="nonzero"/></g><path fill="#27aae1" d="M 27.324219 16.550781 C 27.0625 16.570312 27.050781 16.582031 27.035156 16.847656 C 27.015625 16.582031 27.003906 16.570312 26.742188 16.550781 C 27.003906 16.535156 27.015625 16.519531 27.035156 16.257812 C 27.050781 16.519531 27.0625 16.535156 27.324219 16.550781 " fill-opacity="1" fill-rule="nonzero"/><path fill="#27aae1" d="M 25.789062 15.574219 C 25.09375 15.617188 25.058594 15.65625 25.011719 16.355469 C 24.96875 15.65625 24.933594 15.617188 24.238281 15.574219 C 24.933594 15.527344 24.96875 15.492188 25.011719 14.789062 C 25.058594 15.492188 25.09375 15.527344 25.789062 15.574219 " fill-opacity="1" fill-rule="nonzero"/><g fill="#000000" fill-opacity="1"><g transform="translate(7.782842, 14.470875)"><g><path d="M 0.21875 -1.625 L 0.875 -1.625 C 1.125 -1.625 1.328125 -1.546875 1.484375 -1.390625 C 1.640625 -1.242188 1.71875 -1.050781 1.71875 -0.8125 C 1.71875 -0.582031 1.640625 -0.390625 1.484375 -0.234375 C 1.328125 -0.078125 1.125 0 0.875 0 L 0.21875 0 Z M 0.484375 -1.390625 L 0.484375 -0.25 L 0.890625 -0.25 C 1.046875 -0.25 1.175781 -0.300781 1.28125 -0.40625 C 1.394531 -0.507812 1.453125 -0.644531 1.453125 -0.8125 C 1.453125 -0.976562 1.394531 -1.113281 1.28125 -1.21875 C 1.175781 -1.332031 1.039062 -1.390625 0.875 -1.390625 Z M 0.484375 -1.390625 "/></g></g></g><g fill="#000000" fill-opacity="1"><g transform="translate(9.584531, 14.470875)"><g><path d="M 1.25 0 L 0.953125 -0.5 C 0.929688 -0.488281 0.90625 -0.484375 0.875 -0.484375 L 0.484375 -0.484375 L 0.484375 0 L 0.21875 0 L 0.21875 -1.625 L 0.875 -1.625 C 1.082031 -1.625 1.242188 -1.578125 1.359375 -1.484375 C 1.472656 -1.390625 1.53125 -1.253906 1.53125 -1.078125 C 1.53125 -0.941406 1.5 -0.828125 1.4375 -0.734375 C 1.382812 -0.648438 1.300781 -0.585938 1.1875 -0.546875 L 1.5625 0 Z M 0.484375 -0.734375 L 0.875 -0.734375 C 1.132812 -0.734375 1.265625 -0.84375 1.265625 -1.0625 C 1.265625 -1.28125 1.132812 -1.390625 0.875 -1.390625 L 0.484375 -1.390625 Z M 0.484375 -0.734375 "/></g></g></g><g fill="#000000" fill-opacity="1"><g transform="translate(11.265333, 14.470875)"><g><path d="M 0.140625 -0.234375 C 0.171875 -0.265625 0.207031 -0.28125 0.25 -0.28125 C 0.289062 -0.28125 0.328125 -0.265625 0.359375 -0.234375 C 0.390625 -0.210938 0.40625 -0.179688 0.40625 -0.140625 C 0.40625 -0.0859375 0.390625 -0.046875 0.359375 -0.015625 C 0.328125 0.00390625 0.289062 0.015625 0.25 0.015625 C 0.207031 0.015625 0.171875 0.00390625 0.140625 -0.015625 C 0.117188 -0.046875 0.109375 -0.0859375 0.109375 -0.140625 C 0.109375 -0.179688 0.117188 -0.210938 0.140625 -0.234375 Z M 0.140625 -0.234375 "/></g></g></g><g fill="#000000" fill-opacity="1"><g transform="translate(11.77213, 14.470875)"><g/></g></g><g fill="#000000" fill-opacity="1"><g transform="translate(12.371919, 14.470875)"><g><path d="M 0.75 -1.640625 C 0.957031 -1.640625 1.144531 -1.582031 1.3125 -1.46875 L 1.203125 -1.234375 C 1.035156 -1.335938 0.878906 -1.390625 0.734375 -1.390625 C 0.648438 -1.390625 0.582031 -1.375 0.53125 -1.34375 C 0.488281 -1.3125 0.46875 -1.265625 0.46875 -1.203125 C 0.46875 -1.148438 0.488281 -1.101562 0.53125 -1.0625 C 0.570312 -1.03125 0.625 -1.003906 0.6875 -0.984375 C 0.757812 -0.972656 0.832031 -0.953125 0.90625 -0.921875 C 0.976562 -0.890625 1.046875 -0.859375 1.109375 -0.828125 C 1.179688 -0.804688 1.238281 -0.757812 1.28125 -0.6875 C 1.320312 -0.625 1.34375 -0.550781 1.34375 -0.46875 C 1.34375 -0.320312 1.285156 -0.203125 1.171875 -0.109375 C 1.054688 -0.0234375 0.90625 0.015625 0.71875 0.015625 C 0.601562 0.015625 0.484375 -0.00390625 0.359375 -0.046875 C 0.242188 -0.0976562 0.144531 -0.164062 0.0625 -0.25 L 0.171875 -0.484375 C 0.253906 -0.410156 0.34375 -0.351562 0.4375 -0.3125 C 0.539062 -0.269531 0.640625 -0.25 0.734375 -0.25 C 0.828125 -0.25 0.898438 -0.265625 0.953125 -0.296875 C 1.003906 -0.335938 1.03125 -0.390625 1.03125 -0.453125 C 1.03125 -0.503906 1.007812 -0.546875 0.96875 -0.578125 C 0.925781 -0.617188 0.867188 -0.648438 0.796875 -0.671875 C 0.734375 -0.691406 0.664062 -0.710938 0.59375 -0.734375 C 0.519531 -0.765625 0.445312 -0.789062 0.375 -0.8125 C 0.3125 -0.84375 0.257812 -0.890625 0.21875 -0.953125 C 0.175781 -1.015625 0.15625 -1.09375 0.15625 -1.1875 C 0.15625 -1.320312 0.207031 -1.429688 0.3125 -1.515625 C 0.425781 -1.597656 0.570312 -1.640625 0.75 -1.640625 Z M 0.75 -1.640625 "/></g></g></g><g fill="#000000" fill-opacity="1"><g transform="translate(13.817921, 14.470875)"><g><path d="M 1.375 -1.390625 L 0.484375 -1.390625 L 0.484375 -0.9375 L 1.28125 -0.9375 L 1.28125 -0.703125 L 0.484375 -0.703125 L 0.484375 -0.25 L 1.40625 -0.25 L 1.40625 0 L 0.21875 0 L 0.21875 -1.625 L 1.375 -1.625 Z M 1.375 -1.390625 "/></g></g></g><g fill="#000000" fill-opacity="1"><g transform="translate(15.342964, 14.470875)"><g><path d="M 0.21875 -1.625 L 0.875 -1.625 C 1.125 -1.625 1.328125 -1.546875 1.484375 -1.390625 C 1.640625 -1.242188 1.71875 -1.050781 1.71875 -0.8125 C 1.71875 -0.582031 1.640625 -0.390625 1.484375 -0.234375 C 1.328125 -0.078125 1.125 0 0.875 0 L 0.21875 0 Z M 0.484375 -1.390625 L 0.484375 -0.25 L 0.890625 -0.25 C 1.046875 -0.25 1.175781 -0.300781 1.28125 -0.40625 C 1.394531 -0.507812 1.453125 -0.644531 1.453125 -0.8125 C 1.453125 -0.976562 1.394531 -1.113281 1.28125 -1.21875 C 1.175781 -1.332031 1.039062 -1.390625 0.875 -1.390625 Z M 0.484375 -1.390625 "/></g></g></g><g fill="#000000" fill-opacity="1"><g transform="translate(17.144654, 14.470875)"><g><path d="M 1.265625 -0.375 L 0.4375 -0.375 L 0.28125 0 L 0 0 L 0.71875 -1.625 L 1 -1.625 L 1.71875 0 L 1.421875 0 Z M 1.15625 -0.609375 L 0.859375 -1.34375 L 0.546875 -0.609375 Z M 1.15625 -0.609375 "/></g></g></g><g fill="#000000" fill-opacity="1"><g transform="translate(18.860327, 14.470875)"><g><path d="M 1.328125 -1.390625 L 0.8125 -1.390625 L 0.8125 0 L 0.53125 0 L 0.53125 -1.390625 L 0.015625 -1.390625 L 0.015625 -1.625 L 1.328125 -1.625 Z M 1.328125 -1.390625 "/></g></g></g><g fill="#000000" fill-opacity="1"><g transform="translate(20.206364, 14.470875)"><g/></g></g><g fill="#000000" fill-opacity="1"><g transform="translate(20.806153, 14.470875)"><g><path d="M 0.328125 -1.40625 C 0.492188 -1.5625 0.695312 -1.640625 0.9375 -1.640625 C 1.1875 -1.640625 1.394531 -1.5625 1.5625 -1.40625 C 1.726562 -1.25 1.8125 -1.050781 1.8125 -0.8125 C 1.8125 -0.582031 1.726562 -0.382812 1.5625 -0.21875 C 1.394531 -0.0625 1.1875 0.015625 0.9375 0.015625 C 0.695312 0.015625 0.492188 -0.0625 0.328125 -0.21875 C 0.160156 -0.382812 0.078125 -0.582031 0.078125 -0.8125 C 0.078125 -1.050781 0.160156 -1.25 0.328125 -1.40625 Z M 0.9375 -1.390625 C 0.78125 -1.390625 0.644531 -1.332031 0.53125 -1.21875 C 0.414062 -1.113281 0.359375 -0.976562 0.359375 -0.8125 C 0.359375 -0.65625 0.414062 -0.519531 0.53125 -0.40625 C 0.644531 -0.289062 0.78125 -0.234375 0.9375 -0.234375 C 1.101562 -0.234375 1.242188 -0.289062 1.359375 -0.40625 C 1.472656 -0.519531 1.53125 -0.65625 1.53125 -0.8125 C 1.53125 -0.976562 1.472656 -1.113281 1.359375 -1.21875 C 1.242188 -1.332031 1.101562 -1.390625 0.9375 -1.390625 Z M 0.9375 -1.390625 "/></g></g></g><g fill="#000000" fill-opacity="1"><g transform="translate(22.689209, 14.470875)"><g><path d="M 0.484375 -0.25 L 1.1875 -0.25 L 1.1875 0 L 0.21875 0 L 0.21875 -1.625 L 0.484375 -1.625 Z M 0.484375 -0.25 "/></g></g></g><g fill="#000000" fill-opacity="1"><g transform="translate(23.930631, 14.470875)"><g><path d="M 1.265625 -0.375 L 0.4375 -0.375 L 0.28125 0 L 0 0 L 0.71875 -1.625 L 1 -1.625 L 1.71875 0 L 1.421875 0 Z M 1.15625 -0.609375 L 0.859375 -1.34375 L 0.546875 -0.609375 Z M 1.15625 -0.609375 "/></g></g></g><g fill="#000000" fill-opacity="1"><g transform="translate(25.646304, 14.470875)"><g><path d="M 1.296875 0 L 0.765625 -0.71875 L 0.484375 -0.421875 L 0.484375 0 L 0.21875 0 L 0.21875 -1.625 L 0.484375 -1.625 L 0.484375 -0.78125 L 1.265625 -1.625 L 1.59375 -1.625 L 0.953125 -0.9375 L 1.625 0 Z M 1.296875 0 "/></g></g></g><g fill="#000000" fill-opacity="1"><g transform="translate(18.086149, 16.672669)"><g><path d="M 0.734375 -1.28125 C 0.816406 -1.28125 0.898438 -1.257812 0.984375 -1.21875 C 1.078125 -1.1875 1.148438 -1.140625 1.203125 -1.078125 L 1.078125 -0.921875 C 1.035156 -0.972656 0.984375 -1.007812 0.921875 -1.03125 C 0.859375 -1.0625 0.796875 -1.078125 0.734375 -1.078125 C 0.609375 -1.078125 0.5 -1.035156 0.40625 -0.953125 C 0.320312 -0.867188 0.28125 -0.765625 0.28125 -0.640625 C 0.28125 -0.515625 0.320312 -0.40625 0.40625 -0.3125 C 0.5 -0.226562 0.609375 -0.1875 0.734375 -0.1875 C 0.867188 -0.1875 0.984375 -0.238281 1.078125 -0.34375 L 1.21875 -0.203125 C 1.144531 -0.140625 1.066406 -0.0859375 0.984375 -0.046875 C 0.898438 -0.00390625 0.8125 0.015625 0.71875 0.015625 C 0.53125 0.015625 0.375 -0.046875 0.25 -0.171875 C 0.125 -0.296875 0.0625 -0.453125 0.0625 -0.640625 C 0.0625 -0.816406 0.125 -0.96875 0.25 -1.09375 C 0.382812 -1.21875 0.546875 -1.28125 0.734375 -1.28125 Z M 0.734375 -1.28125 "/></g></g></g><g fill="#000000" fill-opacity="1"><g transform="translate(19.345727, 16.672669)"><g><path d="M 0.375 -0.1875 L 0.9375 -0.1875 L 0.9375 0 L 0.171875 0 L 0.171875 -1.265625 L 0.375 -1.265625 Z M 0.375 -0.1875 "/></g></g></g><g fill="#000000" fill-opacity="1"><g transform="translate(20.310742, 16.672669)"><g><path d="M 0.1875 -1.625 C 0.207031 -1.65625 0.234375 -1.671875 0.265625 -1.671875 C 0.304688 -1.671875 0.335938 -1.65625 0.359375 -1.625 C 0.378906 -1.601562 0.390625 -1.578125 0.390625 -1.546875 C 0.390625 -1.503906 0.378906 -1.472656 0.359375 -1.453125 C 0.335938 -1.429688 0.304688 -1.421875 0.265625 -1.421875 C 0.234375 -1.421875 0.207031 -1.429688 0.1875 -1.453125 C 0.164062 -1.472656 0.15625 -1.503906 0.15625 -1.546875 C 0.15625 -1.578125 0.164062 -1.601562 0.1875 -1.625 Z M 0.375 0 L 0.171875 0 L 0.171875 -1.265625 L 0.375 -1.265625 Z M 0.375 0 "/></g></g></g><g fill="#000000" fill-opacity="1"><g transform="translate(20.856499, 16.672669)"><g><path d="M 1.265625 0 L 1.0625 0 L 0.375 -0.90625 L 0.375 0 L 0.171875 0 L 0.171875 -1.265625 L 0.375 -1.265625 L 1.0625 -0.359375 L 1.0625 -1.265625 L 1.265625 -1.265625 Z M 1.265625 0 "/></g></g></g><g fill="#000000" fill-opacity="1"><g transform="translate(22.287757, 16.672669)"><g><path d="M 0.1875 -1.625 C 0.207031 -1.65625 0.234375 -1.671875 0.265625 -1.671875 C 0.304688 -1.671875 0.335938 -1.65625 0.359375 -1.625 C 0.378906 -1.601562 0.390625 -1.578125 0.390625 -1.546875 C 0.390625 -1.503906 0.378906 -1.472656 0.359375 -1.453125 C 0.335938 -1.429688 0.304688 -1.421875 0.265625 -1.421875 C 0.234375 -1.421875 0.207031 -1.429688 0.1875 -1.453125 C 0.164062 -1.472656 0.15625 -1.503906 0.15625 -1.546875 C 0.15625 -1.578125 0.164062 -1.601562 0.1875 -1.625 Z M 0.375 0 L 0.171875 0 L 0.171875 -1.265625 L 0.375 -1.265625 Z M 0.375 0 "/></g></g></g><g fill="#000000" fill-opacity="1"><g transform="translate(22.833514, 16.672669)"><g><path d="M 0.734375 -1.28125 C 0.816406 -1.28125 0.898438 -1.257812 0.984375 -1.21875 C 1.078125 -1.1875 1.148438 -1.140625 1.203125 -1.078125 L 1.078125 -0.921875 C 1.035156 -0.972656 0.984375 -1.007812 0.921875 -1.03125 C 0.859375 -1.0625 0.796875 -1.078125 0.734375 -1.078125 C 0.609375 -1.078125 0.5 -1.035156 0.40625 -0.953125 C 0.320312 -0.867188 0.28125 -0.765625 0.28125 -0.640625 C 0.28125 -0.515625 0.320312 -0.40625 0.40625 -0.3125 C 0.5 -0.226562 0.609375 -0.1875 0.734375 -0.1875 C 0.867188 -0.1875 0.984375 -0.238281 1.078125 -0.34375 L 1.21875 -0.203125 C 1.144531 -0.140625 1.066406 -0.0859375 0.984375 -0.046875 C 0.898438 -0.00390625 0.8125 0.015625 0.71875 0.015625 C 0.53125 0.015625 0.375 -0.046875 0.25 -0.171875 C 0.125 -0.296875 0.0625 -0.453125 0.0625 -0.640625 C 0.0625 -0.816406 0.125 -0.96875 0.25 -1.09375 C 0.382812 -1.21875 0.546875 -1.28125 0.734375 -1.28125 Z M 0.734375 -1.28125 "/></g></g></g></svg>